<mxfile host="app.diagrams.net" agent="Mozilla/5.0 (Windows NT 10.0; Win64; x64; rv:143.0) Gecko/20100101 Firefox/143.0" version="28.2.3">
  <diagram name="Page-1" id="b5b7bab2-c9e2-2cf4-8b2a-24fd1a2a6d21">
    <mxGraphModel dx="1426" dy="779" grid="1" gridSize="10" guides="1" tooltips="1" connect="1" arrows="1" fold="1" page="1" pageScale="1" pageWidth="1169" pageHeight="827" background="#ffffff" math="0" shadow="0">
      <root>
        <mxCell id="0" />
        <mxCell id="1" parent="0" />
        <mxCell id="-i9JPy4DOjuYUQgbj8oB-29" value="" style="shape=hexagon;perimeter=hexagonPerimeter2;whiteSpace=wrap;html=1;fixedSize=1;fillColor=#d5e8d4;strokeColor=#82b366;" parent="1" vertex="1">
          <mxGeometry x="284" y="245" width="400" height="400" as="geometry" />
        </mxCell>
        <mxCell id="-i9JPy4DOjuYUQgbj8oB-1" value="api" style="shape=folder;fontStyle=1;spacingTop=10;tabWidth=40;tabHeight=14;tabPosition=left;html=1;" parent="1" vertex="1">
          <mxGeometry x="90" y="410" width="70" height="50" as="geometry" />
        </mxCell>
        <mxCell id="-i9JPy4DOjuYUQgbj8oB-2" value="driving_ports" style="shape=folder;fontStyle=1;spacingTop=10;tabWidth=40;tabHeight=14;tabPosition=left;html=1;" parent="1" vertex="1">
          <mxGeometry x="270" y="220" width="70" height="50" as="geometry" />
        </mxCell>
        <mxCell id="-i9JPy4DOjuYUQgbj8oB-3" value="Use" style="endArrow=open;endSize=12;dashed=1;html=1;exitX=0;exitY=0;exitDx=70;exitDy=32;exitPerimeter=0;entryX=0;entryY=0;entryDx=0;entryDy=32;entryPerimeter=0;" parent="1" source="-i9JPy4DOjuYUQgbj8oB-1" target="-i9JPy4DOjuYUQgbj8oB-2" edge="1">
          <mxGeometry width="160" relative="1" as="geometry">
            <mxPoint x="510" y="380" as="sourcePoint" />
            <mxPoint x="670" y="380" as="targetPoint" />
          </mxGeometry>
        </mxCell>
        <mxCell id="-i9JPy4DOjuYUQgbj8oB-5" value="services" style="shape=folder;fontStyle=1;spacingTop=10;tabWidth=40;tabHeight=14;tabPosition=left;html=1;" parent="1" vertex="1">
          <mxGeometry x="449" y="310" width="70" height="50" as="geometry" />
        </mxCell>
        <mxCell id="-i9JPy4DOjuYUQgbj8oB-9" value="entity_imps" style="shape=folder;fontStyle=1;spacingTop=10;tabWidth=40;tabHeight=14;tabPosition=left;html=1;" parent="1" vertex="1">
          <mxGeometry x="440" y="450" width="70" height="50" as="geometry" />
        </mxCell>
        <mxCell id="-i9JPy4DOjuYUQgbj8oB-13" value="Use" style="endArrow=open;endSize=12;dashed=1;html=1;exitX=0.5;exitY=1;exitDx=0;exitDy=0;exitPerimeter=0;entryX=0;entryY=0;entryDx=40;entryDy=14;entryPerimeter=0;" parent="1" source="-i9JPy4DOjuYUQgbj8oB-5" target="-i9JPy4DOjuYUQgbj8oB-9" edge="1">
          <mxGeometry width="160" relative="1" as="geometry">
            <mxPoint x="510" y="470" as="sourcePoint" />
            <mxPoint x="670" y="470" as="targetPoint" />
          </mxGeometry>
        </mxCell>
        <mxCell id="-i9JPy4DOjuYUQgbj8oB-18" value="" style="endArrow=block;dashed=1;endFill=0;endSize=12;html=1;entryX=0;entryY=0;entryDx=70;entryDy=32;entryPerimeter=0;exitX=0;exitY=0;exitDx=0;exitDy=23;exitPerimeter=0;" parent="1" source="-i9JPy4DOjuYUQgbj8oB-5" target="-i9JPy4DOjuYUQgbj8oB-2" edge="1">
          <mxGeometry width="160" relative="1" as="geometry">
            <mxPoint x="380" y="390" as="sourcePoint" />
            <mxPoint x="540" y="390" as="targetPoint" />
          </mxGeometry>
        </mxCell>
        <mxCell id="-i9JPy4DOjuYUQgbj8oB-19" value="&lt;div&gt;driven_ports&lt;/div&gt;&lt;div&gt;persistence&lt;/div&gt;" style="shape=folder;fontStyle=1;spacingTop=10;tabWidth=40;tabHeight=14;tabPosition=left;html=1;" parent="1" vertex="1">
          <mxGeometry x="630" y="220" width="70" height="50" as="geometry" />
        </mxCell>
        <mxCell id="-i9JPy4DOjuYUQgbj8oB-20" value="Use" style="endArrow=open;endSize=12;dashed=1;html=1;entryX=0;entryY=0;entryDx=0;entryDy=41;entryPerimeter=0;exitX=0;exitY=0;exitDx=70;exitDy=32;exitPerimeter=0;" parent="1" source="-i9JPy4DOjuYUQgbj8oB-5" target="-i9JPy4DOjuYUQgbj8oB-19" edge="1">
          <mxGeometry width="160" relative="1" as="geometry">
            <mxPoint x="380" y="390" as="sourcePoint" />
            <mxPoint x="540" y="390" as="targetPoint" />
          </mxGeometry>
        </mxCell>
        <mxCell id="-i9JPy4DOjuYUQgbj8oB-21" value="mongodb" style="shape=folder;fontStyle=1;spacingTop=10;tabWidth=40;tabHeight=14;tabPosition=left;html=1;" parent="1" vertex="1">
          <mxGeometry x="800" y="350" width="70" height="50" as="geometry" />
        </mxCell>
        <mxCell id="-i9JPy4DOjuYUQgbj8oB-22" value="" style="endArrow=block;dashed=1;endFill=0;endSize=12;html=1;entryX=0;entryY=0;entryDx=70;entryDy=32;entryPerimeter=0;exitX=0;exitY=0;exitDx=0;exitDy=14;exitPerimeter=0;" parent="1" source="-i9JPy4DOjuYUQgbj8oB-21" target="-i9JPy4DOjuYUQgbj8oB-19" edge="1">
          <mxGeometry width="160" relative="1" as="geometry">
            <mxPoint x="380" y="390" as="sourcePoint" />
            <mxPoint x="540" y="390" as="targetPoint" />
          </mxGeometry>
        </mxCell>
        <mxCell id="-i9JPy4DOjuYUQgbj8oB-23" value="&lt;div&gt;thirdparty_services&lt;/div&gt;" style="shape=folder;fontStyle=1;spacingTop=10;tabWidth=40;tabHeight=14;tabPosition=left;html=1;" parent="1" vertex="1">
          <mxGeometry x="800" y="480" width="70" height="50" as="geometry" />
        </mxCell>
        <mxCell id="-i9JPy4DOjuYUQgbj8oB-25" value="&lt;div&gt;driven_ports&lt;/div&gt;&lt;div&gt;notifications&lt;/div&gt;" style="shape=folder;fontStyle=1;spacingTop=10;tabWidth=40;tabHeight=14;tabPosition=left;html=1;" parent="1" vertex="1">
          <mxGeometry x="630" y="620" width="70" height="50" as="geometry" />
        </mxCell>
        <mxCell id="-i9JPy4DOjuYUQgbj8oB-26" value="Use" style="endArrow=open;endSize=12;dashed=1;html=1;exitX=0.914;exitY=1.04;exitDx=0;exitDy=0;exitPerimeter=0;entryX=0;entryY=0;entryDx=0;entryDy=23;entryPerimeter=0;" parent="1" source="-i9JPy4DOjuYUQgbj8oB-5" target="-i9JPy4DOjuYUQgbj8oB-25" edge="1">
          <mxGeometry width="160" relative="1" as="geometry">
            <mxPoint x="380" y="490" as="sourcePoint" />
            <mxPoint x="540" y="490" as="targetPoint" />
          </mxGeometry>
        </mxCell>
        <mxCell id="-i9JPy4DOjuYUQgbj8oB-27" value="" style="endArrow=block;dashed=1;endFill=0;endSize=12;html=1;entryX=0;entryY=0;entryDx=70;entryDy=32;entryPerimeter=0;exitX=0;exitY=0;exitDx=0;exitDy=14;exitPerimeter=0;" parent="1" source="-i9JPy4DOjuYUQgbj8oB-23" target="-i9JPy4DOjuYUQgbj8oB-25" edge="1">
          <mxGeometry width="160" relative="1" as="geometry">
            <mxPoint x="380" y="490" as="sourcePoint" />
            <mxPoint x="540" y="490" as="targetPoint" />
          </mxGeometry>
        </mxCell>
        <mxCell id="03fi_5gfA2-HcZljwWnn-3" value="&lt;div&gt;value_objects&lt;/div&gt;" style="shape=folder;fontStyle=1;spacingTop=10;tabWidth=40;tabHeight=14;tabPosition=left;html=1;" parent="1" vertex="1">
          <mxGeometry x="320" y="445" width="70" height="50" as="geometry" />
        </mxCell>
        <mxCell id="03fi_5gfA2-HcZljwWnn-6" value="&lt;div&gt;anybody&lt;/div&gt;&lt;div&gt;&amp;amp;&lt;/div&gt;&lt;div&gt;everybody&lt;br&gt;&lt;/div&gt;" style="shape=note;strokeWidth=2;fontSize=14;size=20;whiteSpace=wrap;html=1;fillColor=#fff2cc;strokeColor=#d6b656;fontColor=#666600;" parent="1" vertex="1">
          <mxGeometry x="260" y="600" width="110.00000000000001" height="80" as="geometry" />
        </mxCell>
        <mxCell id="03fi_5gfA2-HcZljwWnn-10" value="Use" style="endArrow=open;endSize=12;dashed=1;html=1;entryX=0.5;entryY=1;entryDx=0;entryDy=0;entryPerimeter=0;exitX=0.5;exitY=0;exitDx=0;exitDy=0;exitPerimeter=0;" parent="1" source="03fi_5gfA2-HcZljwWnn-6" target="03fi_5gfA2-HcZljwWnn-3" edge="1">
          <mxGeometry width="160" relative="1" as="geometry">
            <mxPoint x="50" y="630" as="sourcePoint" />
            <mxPoint x="210" y="630" as="targetPoint" />
          </mxGeometry>
        </mxCell>
        <mxCell id="03fi_5gfA2-HcZljwWnn-11" value="&lt;div&gt;filters&lt;/div&gt;" style="shape=folder;fontStyle=1;spacingTop=10;tabWidth=40;tabHeight=14;tabPosition=left;html=1;" parent="1" vertex="1">
          <mxGeometry x="90" y="530" width="70" height="50" as="geometry" />
        </mxCell>
        <mxCell id="03fi_5gfA2-HcZljwWnn-12" value="dev" style="shape=folder;fontStyle=1;spacingTop=10;tabWidth=40;tabHeight=14;tabPosition=left;html=1;" parent="1" vertex="1">
          <mxGeometry x="910" y="410" width="70" height="50" as="geometry" />
        </mxCell>
        <mxCell id="LCgTUXfQYYcwCl3VW3OO-1" value="" style="endArrow=block;dashed=1;endFill=0;endSize=12;html=1;rounded=0;edgeStyle=orthogonalEdgeStyle;entryX=0;entryY=0;entryDx=70;entryDy=14;entryPerimeter=0;exitX=0;exitY=0;exitDx=55;exitDy=14;exitPerimeter=0;" parent="1" source="03fi_5gfA2-HcZljwWnn-12" target="-i9JPy4DOjuYUQgbj8oB-19" edge="1">
          <mxGeometry width="160" relative="1" as="geometry">
            <mxPoint x="500" y="400" as="sourcePoint" />
            <mxPoint x="660" y="400" as="targetPoint" />
            <Array as="points">
              <mxPoint x="960" y="424" />
              <mxPoint x="960" y="234" />
            </Array>
          </mxGeometry>
        </mxCell>
        <mxCell id="LCgTUXfQYYcwCl3VW3OO-2" value="" style="endArrow=block;dashed=1;endFill=0;endSize=12;html=1;rounded=0;edgeStyle=orthogonalEdgeStyle;entryX=0;entryY=0;entryDx=70;entryDy=50;entryPerimeter=0;exitX=0.75;exitY=1;exitDx=0;exitDy=0;exitPerimeter=0;" parent="1" source="03fi_5gfA2-HcZljwWnn-12" target="-i9JPy4DOjuYUQgbj8oB-25" edge="1">
          <mxGeometry width="160" relative="1" as="geometry">
            <mxPoint x="500" y="400" as="sourcePoint" />
            <mxPoint x="660" y="400" as="targetPoint" />
            <Array as="points">
              <mxPoint x="963" y="670" />
            </Array>
          </mxGeometry>
        </mxCell>
        <mxCell id="BjVpHNlU34Ch_e0tB_mM-1" value="&lt;div&gt;entity_ints&lt;/div&gt;" style="shape=folder;fontStyle=1;spacingTop=10;tabWidth=40;tabHeight=14;tabPosition=left;html=1;" parent="1" vertex="1">
          <mxGeometry x="430" y="560" width="70" height="50" as="geometry" />
        </mxCell>
        <mxCell id="BjVpHNlU34Ch_e0tB_mM-4" value="Use" style="endArrow=open;endSize=12;dashed=1;html=1;exitX=0;exitY=0;exitDx=110.00000000000001;exitDy=50;exitPerimeter=0;entryX=0;entryY=0;entryDx=0;entryDy=32;entryPerimeter=0;" parent="1" source="03fi_5gfA2-HcZljwWnn-6" target="BjVpHNlU34Ch_e0tB_mM-1" edge="1">
          <mxGeometry width="160" relative="1" as="geometry">
            <mxPoint x="450" y="420" as="sourcePoint" />
            <mxPoint x="610" y="420" as="targetPoint" />
          </mxGeometry>
        </mxCell>
        <mxCell id="BjVpHNlU34Ch_e0tB_mM-5" value="" style="endArrow=block;dashed=1;endFill=0;endSize=12;html=1;exitX=0.5;exitY=1;exitDx=0;exitDy=0;exitPerimeter=0;" parent="1" source="-i9JPy4DOjuYUQgbj8oB-9" target="BjVpHNlU34Ch_e0tB_mM-1" edge="1">
          <mxGeometry width="160" relative="1" as="geometry">
            <mxPoint x="450" y="420" as="sourcePoint" />
            <mxPoint x="610" y="420" as="targetPoint" />
          </mxGeometry>
        </mxCell>
        <mxCell id="BjVpHNlU34Ch_e0tB_mM-7" value="Use" style="endArrow=open;endSize=12;dashed=1;html=1;exitX=0;exitY=0;exitDx=70;exitDy=41;exitPerimeter=0;entryX=0.25;entryY=1;entryDx=0;entryDy=0;entryPerimeter=0;" parent="1" source="-i9JPy4DOjuYUQgbj8oB-9" target="-i9JPy4DOjuYUQgbj8oB-19" edge="1">
          <mxGeometry width="160" relative="1" as="geometry">
            <mxPoint x="450" y="420" as="sourcePoint" />
            <mxPoint x="610" y="420" as="targetPoint" />
          </mxGeometry>
        </mxCell>
      </root>
    </mxGraphModel>
  </diagram>
</mxfile>
